<?xml version="1.0" encoding="utf-8"?>
<!-- Generator: Adobe Illustrator 23.0.1, SVG Export Plug-In . SVG Version: 6.00 Build 0)  -->
<svg version="1.1" id="Layer_1" xmlns="http://www.w3.org/2000/svg" xmlns:xlink="http://www.w3.org/1999/xlink" x="0px" y="0px"
	 viewBox="0 0 436.7 144" style="enable-background:new 0 0 436.7 144;" xml:space="preserve">
<style type="text/css">
	.st0{fill:#5C88B2;}
	.st1{fill:#707372;}
	.st2{fill:#425364;}
	.st3{fill:#929DA5;}
	.st4{fill-rule:evenodd;clip-rule:evenodd;fill:#929DA5;}
</style>
<g>
	<g>
		<path class="st0" d="M436.7,27.4c0,1.5-1.2,2.7-2.7,2.7c-1.5,0-2.8-1.2-2.8-2.7c0-1.5,1.2-2.7,2.8-2.7
			C435.5,24.7,436.7,25.9,436.7,27.4z M431.9,27.4c0,1.2,0.9,2.1,2.1,2.1c1.2,0,2-0.9,2-2.1c0-1.2-0.9-2.2-2.1-2.2
			C432.8,25.3,431.9,26.2,431.9,27.4z M433.6,28.8h-0.6v-2.7c0.2,0,0.6-0.1,1-0.1c0.5,0,0.7,0.1,0.9,0.2c0.1,0.1,0.3,0.3,0.3,0.6
			c0,0.3-0.2,0.5-0.6,0.6v0c0.3,0.1,0.4,0.3,0.5,0.7c0.1,0.4,0.1,0.6,0.2,0.7h-0.7c-0.1-0.1-0.1-0.3-0.2-0.7c0-0.3-0.2-0.4-0.6-0.4
			h-0.3V28.8z M433.6,27.3h0.3c0.3,0,0.6-0.1,0.6-0.4c0-0.2-0.2-0.4-0.6-0.4c-0.2,0-0.3,0-0.3,0V27.3z"/>
	</g>
	<path class="st0" d="M137.9,25.4c-1.4-0.5-3-0.7-6.9-0.7h-23.2v35.3h7.9V49.5h16.1c4.7,0,7-0.6,8.7-2.3c1.9-1.9,2.6-4.9,2.6-10.3
		C143.1,29.8,141.7,26.8,137.9,25.4 M135.2,37.3c0,3.8-0.9,4.6-5.2,4.6h-14.3v-9.8h14.6C134.3,32.2,135.2,33.1,135.2,37.3"/>
	<path class="st0" d="M220.6,47.9c0,3.2-0.9,4.3-3.6,4.6l-8.8,0.2c-8.7,0-9.1-0.5-9.1-10.1c0-7.1,0.3-8.9,1.7-9.7
		c1.3-0.8,3.2-1,9.8-1c9.8,0,9.8,0.5,9.8,4.8v0.6h7.6v-0.6c0-4.3-0.7-7.4-2-9c-2-2.6-5.3-3.3-15.7-3.3c-9.3,0-12.4,0.4-14.9,2.1
		c-3.2,2.1-4.1,5.4-4.1,15.2c0,5,0.2,8.9,0.6,10.6c0.6,2.8,1.8,4.7,3.6,5.9c2.7,1.7,4.9,2,16.5,2c9.6,0,12.5-0.7,14.6-3.4
		c1.3-1.6,1.8-4.1,1.8-9.2v-1.2h-7.7V47.9z"/>
	<rect x="237.9" y="38.1" class="st0" width="16" height="7.8"/>
	<path class="st0" d="M292.2,47.9c0,3.2-0.9,4.3-3.6,4.6l-8.8,0.2c-8.7,0-9.1-0.5-9.1-10.1c0-7.1,0.3-8.9,1.7-9.7
		c1.3-0.8,3.2-1,9.8-1c9.8,0,9.8,0.5,9.8,4.8v0.6h7.6v-0.6c0-4.3-0.7-7.4-2-9c-2-2.6-5.3-3.3-15.7-3.3c-9.3,0-12.4,0.4-14.9,2.1
		c-3.2,2.1-4.1,5.4-4.1,15.2c0,5,0.2,8.9,0.6,10.6c0.6,2.8,1.8,4.7,3.6,5.9c2.7,1.7,4.9,2,16.5,2c9.6,0,12.5-0.7,14.6-3.4
		c1.3-1.6,1.8-4.1,1.8-9.2v-1.2h-7.7V47.9z"/>
	<polygon class="st0" points="317.1,24.7 309.2,24.7 309.2,59.9 338.2,59.9 338.2,52.3 317.1,52.3 	"/>
	<path class="st0" d="M428.3,28.6c-2.1-2.7-5.8-4-11.5-4h-24.6v35.3h25.3c5,0,8.3-1,10.2-3.1c2.3-2.5,3.2-6.4,3.2-14.1
		C430.9,35.1,430.2,31.1,428.3,28.6 M423,43.1c0,5-0.6,7.5-2.1,8.4c-1.1,0.7-2.6,1-4.8,1h-16V32.3h16C421.6,32.3,423,33.4,423,43.1"
		/>
	<polygon class="st0" points="158.2,34.5 142.8,59.8 151.7,59.8 162.9,41.6 	"/>
	<polygon class="st0" points="164.8,23.6 160.2,31.3 178.2,59.8 186.9,59.8 	"/>
	<polygon class="st0" points="359.1,34.5 343.7,59.8 352.6,59.8 363.8,41.6 	"/>
	<polygon class="st0" points="365.7,23.6 361,31.3 379.1,59.8 387.8,59.8 	"/>
	<path class="st0" d="M137.9,25.4c-1.4-0.5-3-0.7-6.9-0.7h-23.2v35.3h7.9V49.5h16.1c4.7,0,7-0.6,8.7-2.3c1.9-1.9,2.6-4.9,2.6-10.3
		C143.2,29.8,141.8,26.8,137.9,25.4 M135.3,37.3c0,3.8-0.9,4.6-5.2,4.6h-14.3v-9.8h14.6C134.4,32.2,135.3,33.1,135.3,37.3"/>
	<path class="st0" d="M220.7,47.9c0,3.2-0.9,4.3-3.6,4.6l-8.8,0.2c-8.7,0-9.1-0.5-9.1-10.1c0-7.1,0.3-8.9,1.7-9.7
		c1.3-0.8,3.2-1,9.8-1c9.8,0,9.8,0.5,9.8,4.8v0.6h7.6v-0.6c0-4.3-0.7-7.4-2-9c-2-2.6-5.3-3.3-15.7-3.3c-9.3,0-12.4,0.4-14.9,2.1
		c-3.2,2.1-4.1,5.4-4.1,15.2c0,5,0.2,8.9,0.6,10.6c0.6,2.8,1.8,4.7,3.6,5.9c2.7,1.7,4.9,2,16.5,2c9.6,0,12.5-0.7,14.6-3.4
		c1.3-1.6,1.8-4.1,1.8-9.2v-1.2h-7.7V47.9z"/>
	<rect x="238" y="38.1" class="st0" width="16" height="7.8"/>
	<path class="st0" d="M292.3,47.9c0,3.2-0.9,4.3-3.6,4.6l-8.8,0.2c-8.7,0-9.1-0.5-9.1-10.1c0-7.1,0.3-8.9,1.7-9.7
		c1.3-0.8,3.2-1,9.8-1c9.8,0,9.8,0.5,9.8,4.8v0.6h7.6v-0.6c0-4.3-0.7-7.4-2-9c-2-2.6-5.3-3.3-15.7-3.3c-9.3,0-12.4,0.4-14.9,2.1
		c-3.2,2.1-4.1,5.4-4.1,15.2c0,5,0.2,8.9,0.6,10.6c0.6,2.8,1.8,4.7,3.6,5.9c2.7,1.7,4.9,2,16.5,2c9.6,0,12.5-0.7,14.6-3.4
		c1.3-1.6,1.8-4.1,1.8-9.2v-1.2h-7.7V47.9z"/>
	<polygon class="st0" points="317.2,24.7 309.3,24.7 309.3,59.9 338.3,59.9 338.3,52.3 317.2,52.3 	"/>
	<path class="st0" d="M428.4,28.6c-2.1-2.7-5.8-4-11.5-4h-24.6v35.3h25.3c5,0,8.3-1,10.2-3.1c2.3-2.5,3.2-6.4,3.2-14.1
		C431,35.1,430.3,31.1,428.4,28.6 M423,43.1c0,5-0.6,7.5-2.1,8.4c-1.1,0.7-2.6,1-4.8,1h-16V32.3h16C421.6,32.3,423,33.4,423,43.1"/>
	<polygon class="st0" points="158.3,34.5 142.9,59.8 151.8,59.8 163,41.6 	"/>
	<polygon class="st0" points="164.9,23.6 160.3,31.3 178.3,59.8 187,59.8 	"/>
	<polygon class="st0" points="359.2,34.5 343.8,59.8 352.7,59.8 363.9,41.6 	"/>
	<polygon class="st0" points="365.8,23.6 361.1,31.3 379.2,59.8 387.9,59.8 	"/>
	<g>
		<path class="st1" d="M108,93.9h7.9c1.4,0,2.4,0.2,3.2,0.7c1.2,0.7,1.9,1.8,1.9,3.1c0,1.4-0.9,2.7-2.3,3.3c-1,0.4-2.3,0.7-3.6,0.7
			h-3.8v3.4H108V93.9z M115.2,99.4c1.4,0,2.2-0.6,2.2-1.6c0-1-0.8-1.6-2.2-1.6h-4v3.2H115.2z"/>
		<path class="st1" d="M152.5,105.1V93.9h12v2.3h-8.7v1.9h7.7v2.3h-7.7v2.5h8.7v2.3H152.5z"/>
		<path class="st1" d="M202.8,105.1h-3.3v-8.9H195v-2.3h12.4v2.3h-4.5V105.1z"/>
		<path class="st1" d="M238.5,105.1V93.9h12v2.3h-8.7v1.9h7.7v2.3h-7.7v2.5h8.7v2.3H238.5z"/>
		<path class="st1" d="M285.6,105.1h-3.3V93.9h8.6c1.5,0,2.4,0.2,3.1,0.6c1,0.5,1.6,1.5,1.6,2.5c0,1.3-0.8,2.3-2.3,2.8
			c1.3,0.4,1.7,1,1.7,2.8c0.1,1.4,0.2,1.8,0.6,2.5H292c-0.2-0.6-0.3-0.9-0.3-1.9c0-1.6-0.5-2.1-2.2-2.1h-3.9V105.1z M290,98.8
			c0.7,0,1,0,1.3-0.2c0.5-0.2,0.8-0.7,0.8-1.1c0-0.5-0.3-0.9-0.8-1.1c-0.3-0.1-0.6-0.2-1.3-0.2h-4.4v2.6H290z"/>
		<path class="st1" d="M337.2,97.3c-0.2-0.7-0.5-1-1.1-1.3c-0.6-0.3-1.3-0.4-2.3-0.4c-1.9,0-3.1,0.5-3.1,1.3c0,0.6,0.5,0.9,1.9,1
			l3.2,0.3c1.7,0.1,2.6,0.3,3.5,0.7c1.2,0.5,1.9,1.5,1.9,2.7c0,1.3-0.9,2.5-2.4,3.1c-1.3,0.5-2.7,0.7-4.9,0.7
			c-2.7,0-4.6-0.4-5.8-1.3c-0.9-0.7-1.3-1.4-1.4-2.9h3.4c0.1,0.7,0.3,1.1,0.9,1.5c0.7,0.5,1.6,0.7,3,0.7c2.1,0,3.4-0.5,3.4-1.5
			c0-0.7-0.6-1.1-2.2-1.2l-3.7-0.3c-2.9-0.3-4.4-1.4-4.4-3.1c0-2.3,2.5-3.8,6.6-3.8c2.1,0,3.9,0.4,5.1,1.1c1,0.6,1.5,1.3,1.7,2.6
			H337.2z"/>
		<path class="st1" d="M373,105.1V93.9h12v2.3h-8.7v1.9h7.7v2.3h-7.7v2.5h8.7v2.3H373z"/>
		<path class="st1" d="M427,105.1l-3.4-3.8c-1.7-2-2.9-3.4-3.6-4.4c0.1,1,0.1,1.3,0.1,4.9v3.4h-3.2V93.9h3.9l3.2,3.6
			c1.2,1.4,3.1,3.6,3.9,4.7c-0.1-0.9-0.1-2.5-0.1-4.8v-3.4h3.2v11.2H427z"/>
	</g>
	<rect x="108" y="76.1" class="st1" width="323.5" height="1.2"/>
	<path class="st0" d="M0,21.7l24.6,10.9V105L7.8,97.6C2.9,95.4,0,90.9,0,86L0,21.7z"/>
	<path class="st2" d="M48.5,36.3L0,14.8L17.9,2.2c3.5-2.5,8-2.9,11.9-1.2l42.3,18.7L48.5,36.3z"/>
	<path class="st1" d="M30.9,56.4l46.7-32.9l0,23.1c0,4-1.9,7.7-5.2,10L30.9,85.9V56.4z"/>
</g>
<g>
	<path class="st3" d="M240.2,137.6h-4.4l-1.3,1.2h-1.3l6.3-6.4h2.9l-0.1,6.4h-2L240.2,137.6z M240.3,136.7l0.1-3.3l-3.6,3.3H240.3z"
		/>
	<path class="st3" d="M364.1,136.6h1.9l-0.1,0.2c-0.5,0.9-1,1.5-1.7,1.7c-0.7,0.3-1.9,0.4-3.7,0.4c-2,0-3.2-0.2-3.4-0.6
		c-0.2-0.4,0.1-1.5,1.1-3.3c0.6-1,1.3-1.7,2.1-2.1c0.8-0.3,2.2-0.5,4.2-0.5c1.4,0,2.3,0.1,2.7,0.4c0.3,0.3,0.3,0.8-0.1,1.6l-0.1,0.1
		H365l0.1-0.2c0.2-0.4,0.2-0.7,0-0.8c-0.2-0.1-0.7-0.2-1.6-0.2c-1.2,0-2,0.1-2.3,0.3c-0.3,0.2-0.8,0.7-1.2,1.6
		c-0.7,1.2-0.9,1.9-0.8,2.2c0.1,0.2,0.7,0.3,1.9,0.3c1,0,1.6-0.1,2-0.2c0.4-0.1,0.6-0.4,0.9-0.8L364.1,136.6z"/>
	<path class="st3" d="M373.6,132.4c1.8,0,2.9,0.2,3.3,0.6c0.3,0.4,0.2,1.2-0.5,2.6c-0.7,1.5-1.5,2.4-2.2,2.8
		c-0.7,0.4-2.1,0.6-4.2,0.6c-1.9,0-3-0.2-3.3-0.6c-0.3-0.4-0.2-1.2,0.5-2.5c0.8-1.5,1.6-2.5,2.3-2.9
		C370.1,132.6,371.5,132.4,373.6,132.4z M372.9,133.5c-1.3,0-2.1,0.1-2.4,0.3c-0.3,0.2-0.8,0.9-1.4,2.2c-0.5,0.9-0.6,1.5-0.5,1.6
		c0.2,0.2,0.9,0.3,2.1,0.3c1.2,0,2-0.1,2.3-0.3c0.3-0.2,0.8-0.8,1.3-1.9c0.5-1.1,0.7-1.7,0.6-1.9
		C374.8,133.6,374.1,133.5,372.9,133.5z"/>
	<path class="st3" d="M391,132.4l-3,6.4H386l1.7-3.5c0.1-0.3,0.3-0.6,0.5-0.9l0.3-0.5l0.3-0.5h-0.1l-0.4,0.4l-0.4,0.4
		c-0.4,0.4-0.7,0.7-0.9,0.9l-4,3.6h-1.8l-0.5-3.6c0-0.2,0-0.5-0.1-0.9l0-0.4l0-0.4h-0.1l-0.2,0.5l-0.2,0.5c-0.1,0.4-0.3,0.7-0.4,0.9
		l-1.7,3.5H376l3.2-6.4h3.1l0.4,2.9c0,0.2,0,0.5,0.1,0.9l0,0.4l0,0.4h0.1l0.4-0.4l0.4-0.4c0.4-0.4,0.7-0.7,0.9-0.9l3.2-3H391z"/>
	<path class="st3" d="M389.8,138.8l3-6.4h4.1h0.5c1.4,0,2.2,0.1,2.6,0.4c0.3,0.3,0.3,0.9-0.1,1.7c-0.4,0.9-0.9,1.4-1.5,1.7
		c-0.6,0.3-1.6,0.4-3,0.4l-0.5,0h-2.3l-1,2.1H389.8z M393.1,135.7h2.2c0.9,0,1.5-0.1,1.8-0.2c0.3-0.1,0.5-0.4,0.8-0.9
		c0.2-0.5,0.3-0.9,0.2-1c-0.1-0.1-0.6-0.2-1.4-0.2h-2.4L393.1,135.7z"/>
	<path class="st3" d="M405.9,137.6h-4.4l-1.2,1.2h-2.1l6.2-6.4h2.9l0.7,6.4h-2L405.9,137.6z M405.8,136.7l-0.3-3.3l-3.2,3.3H405.8z"
		/>
	<path class="st3" d="M421,132.4l-2.6,6.4h-3.3l-1.5-3.5c-0.1-0.2-0.2-0.5-0.3-0.9l-0.1-0.5l-0.1-0.5H413l-0.1,0.4l-0.2,0.4
		l-0.3,0.8l-1.5,3.6h-1.9l2.7-6.4h3.2l1.3,3.2c0.1,0.3,0.2,0.6,0.4,1l0.2,0.5l0.2,0.5h0.1l0.1-0.4l0.1-0.4l0.3-0.8l1.5-3.7H421z"/>
	<path class="st3" d="M431.1,132.4l-5.3,3.9l-0.9,2.4H423l1-2.4l-2.1-3.9h2.2l0.9,1.7c0,0.1,0.1,0.3,0.2,0.5l0.1,0.3l0.1,0.3h0.1
		l0.3-0.3l0.3-0.3c0.3-0.2,0.5-0.4,0.6-0.5l2.2-1.7H431.1z"/>
</g>
<g>
	<path class="st4" d="M270.4,127.3c0.1,0.1,0,0.3-0.1,0.4c-0.3,0.9-0.6,1.8-0.9,2.7c0.4-0.2,0.8-0.5,1.1-0.7
		c1.1-0.8,2.3-1.5,3.4-2.3c26.7,0,53.4,0,80.1,0c-1.8,5.6-3.6,11.1-5.3,16.7c-24.7,0-49.3,0-73.9,0c0,0,0,0,0,0
		c0.4-1,0.7-2.1,1.1-3.2c-0.9,0.5-1.7,1-2.6,1.6c-0.7,0.5-1.5,1-2.3,1.4c-0.2,0.1-0.2,0.2-0.4,0.2c-4,0-8.1,0-12.1,0
		c-2,0-4.1,0.1-5.6-0.4c-1.6-0.4-2.7-1.4-3.1-3c-0.2-0.8-0.2-1.8,0.1-2.6c0.2-0.8,0.5-1.6,0.7-2.3c0.5-1.5,1-3.1,1.5-4.5
		c1-2.9,4.2-4,8.1-4C263.4,127.3,267,127.4,270.4,127.3z M262.9,130.4c-0.7,0-1.5,0-2.2,0c-1.5,0-3-0.1-3.9,0.5
		c-0.5,0.4-0.9,1-1.1,1.7c-0.5,1.5-0.9,2.8-1.4,4.2c-0.2,0.5-0.3,1.1-0.5,1.6c-0.1,0.2-0.1,0.4-0.2,0.5c-0.1,0.3,0,0.6,0.1,0.8
		c0.4,0.9,1.5,1.1,2.8,1.1c3.1,0,6,0,9,0c0.3,0,0.6,0,0.8,0c0.1,0,0.2-0.1,0.3-0.2c0.7-0.5,1.3-0.9,2-1.4c0.1-0.1,0.3-0.2,0.4-0.2
		c0.1,0,0.3,0,0.4,0c2.4,0,4.5,0,6.9,0c-0.2,0.6-0.4,1.2-0.6,1.8c1.2,0,2.5,0,3.7,0c1.1-3.5,2.2-6.9,3.3-10.3c-1.6,0-3,0-4.5,0
		c-0.2,0-0.5,0-0.6,0c-0.1,0-0.2,0.1-0.4,0.2c-1.9,1.3-3.8,2.5-5.6,3.8c-1.8,1.2-3.5,2.3-5.2,3.5c-0.2,0.1-0.6,0.5-0.8,0.5
		c-0.3,0.1-0.7,0-1,0c-2.4,0-4.8,0-7.1,0c0.6-2,1.3-4,1.9-5.9c1.9,0,3.9,0,5.8,0c0.3,0,0.6,0,0.8,0c0.1,0,0.3-0.2,0.4-0.3
		c0.7-0.5,1.4-0.9,2-1.3c0.3-0.2,0.6-0.3,0.8-0.6C267.4,130.4,265,130.4,262.9,130.4z M284.6,130.5c-0.9,2.5-1.6,5.2-2.5,7.7
		c-0.3,0.9-0.6,1.7-0.8,2.6c1.3,0,2.6,0,3.9,0c0.6-1.8,1.1-3.7,1.7-5.5c1,1.8,2.1,3.7,3.1,5.5c1.2,0,2.7,0,3.9,0
		c0-0.1-0.1-0.2-0.1-0.2c-0.3-0.6-0.7-1.2-1-1.8c-0.4-0.7-0.8-1.4-1.1-2.1c0.9-0.3,1.7-0.8,2.3-1.5c0.6-0.7,1.1-1.6,1-2.8
		c-0.1-1-0.7-1.8-1.7-1.8c-0.7-0.1-1.4,0-2.2,0C289,130.4,286.7,130.4,284.6,130.5C284.6,130.4,284.6,130.5,284.6,130.5z
		 M298.2,130.5c-1,3-2,6-2.9,9c-0.1,0.4-0.3,0.8-0.4,1.3c2.9,0,5.8,0,8.7,0c0.2-0.8,0.5-1.5,0.7-2.3c-1.6,0-3.3,0-4.9,0
		c0.9-2.7,1.7-5.4,2.5-8C300.7,130.4,299.5,130.4,298.2,130.5C298.2,130.4,298.2,130.5,298.2,130.5z M308.4,130.5
		c-1.1,3.4-2.2,6.8-3.3,10.3c1.2,0,2.5,0,3.7,0c1.1-3.4,2.2-6.9,3.3-10.3C310.9,130.4,309.7,130.4,308.4,130.5
		C308.4,130.4,308.4,130.5,308.4,130.5z M320.1,130.4c-0.8,0-1.5-0.1-2.3,0c-0.9,0.1-1.6,0.4-2.3,0.8c-0.6,0.4-1.2,0.8-1.6,1.4
		c-0.4,0.5-0.7,1.4-0.7,2.2c0.1,0.9,0.6,1.9,1.6,1.9c0.6,0.1,1.2,0,1.9,0c1.3,0,2.5,0,3.7,0c0.6,0,1.3,0,1.4,0.5
		c0,0.4-0.3,0.8-0.6,0.9c-0.6,0.4-1.5,0.3-2.4,0.3c-2.7,0-5.1,0-7.7,0c-0.3,0.7-0.5,1.6-0.7,2.3c2.8,0,5.5,0,8.2,0
		c0.9,0,1.9,0.1,2.6-0.1c0.7-0.1,1.4-0.5,1.9-0.8c0.6-0.4,1-0.9,1.4-1.4c0.4-0.6,0.6-1.3,0.6-2.2c0-0.7-0.4-1.4-1-1.8
		c-0.6-0.3-1.6-0.2-2.4-0.2c-1.3,0-2.5,0-3.7,0c-0.7,0-1.3,0.1-1.4-0.4c-0.1-0.4,0.3-0.8,0.6-1c0.5-0.3,1.3-0.2,2.1-0.2
		c2.3,0,4.7,0,6.9,0c0.3-0.7,0.5-1.5,0.8-2.3C324.7,130.4,322.4,130.4,320.1,130.4z M329,130.5c-1,3.2-2.1,6.4-3.1,9.6
		c-0.1,0.2-0.2,0.4-0.2,0.6c2.8,0,5.9,0,8.7,0c0.3-0.7,0.5-1.5,0.7-2.2c-1.6,0-3.3,0-4.9,0c0.9-2.7,1.7-5.4,2.6-8.1
		C331.6,130.4,330.3,130.4,329,130.5C329,130.4,329,130.5,329,130.5z M336.2,140.8c3.2,0,6.5,0,9.7,0c0.2-0.7,0.5-1.4,0.7-2.2
		c-1.8,0-3.7,0-5.4,0c-0.3,0-0.5,0-0.7,0c0.2-0.7,0.4-1.3,0.6-2c2,0,4.1,0,6.1,0c0.2-0.6,0.4-1.2,0.5-1.7c0.1-0.2,0.2-0.4,0.2-0.6
		c-1.9,0-4.1,0-6.1,0c0.2-0.6,0.4-1.1,0.6-1.7c2,0,4.1,0,6.1,0c0.2-0.7,0.5-1.4,0.7-2.2c-3.2,0-6.5,0-9.7,0
		C338.3,133.9,337.2,137.3,336.2,140.8z M346.6,142.7c0.4,0,0.7-0.3,0.8-0.5c0.3-0.6-0.2-1.3-0.9-1.2
		C345.4,141.1,345.5,142.7,346.6,142.7z"/>
	<path class="st4" d="M287.7,132.6c1.2,0.1,3-0.3,3.6,0.4c0.4,0.5,0,1.3-0.4,1.7c-0.8,0.7-2.6,0.5-4.1,0.5
		C287.1,134.4,287.4,133.6,287.7,132.6C287.7,132.7,287.7,132.6,287.7,132.6z"/>
	<path class="st4" d="M278.3,132.8C278.3,132.8,278.3,132.8,278.3,132.8c-0.4,1.3-0.8,2.5-1.2,3.8c-1.5,0-2.9,0-4.4,0
		c-0.1,0,0.1-0.1,0.1-0.1c0.4-0.3,0.8-0.5,1.2-0.8C275.5,134.8,276.9,133.8,278.3,132.8z"/>
	<path class="st4" d="M346.5,141.2c0.5-0.1,0.9,0.3,0.8,0.8c0,0.3-0.3,0.6-0.7,0.6c-0.3,0-0.7-0.2-0.7-0.6
		C345.8,141.5,346.1,141.2,346.5,141.2z M346.2,142.3c0.1,0,0.1,0,0.2,0c0-0.1,0-0.3,0-0.4c0.1,0,0.1,0,0.2,0c0,0.1,0.1,0.3,0.2,0.4
		c0.1,0,0.2,0,0.2,0c-0.1-0.1-0.1-0.2-0.2-0.4c0.3,0,0.3-0.4,0.2-0.5c-0.2-0.1-0.5-0.1-0.7,0C346.2,141.6,346.2,142,346.2,142.3z"/>
	<path class="st4" d="M346.8,141.6c0,0,0,0.1,0,0.2c-0.1,0.1-0.3,0-0.5,0.1c0-0.1,0-0.2,0-0.3C346.6,141.5,346.8,141.5,346.8,141.6z
		"/>
</g>
</svg>
